<svg width="25" height="31" viewBox="0 0 25 31" fill="none" xmlns="http://www.w3.org/2000/svg">
<g clip-path="url(#clip0_510_1356)">
<path d="M7.65842 27.9069C7.7408 28.0864 8.06347 28.1435 8.24025 28.2463C10.5573 29.0524 14.0483 29.1063 16.5078 28.7766C17.3934 28.6575 18.2241 28.4601 19.0033 28.1467C19.2573 28.0439 19.3741 27.9281 19.4152 27.7127L20.1361 24.01C20.7111 23.9643 21.1487 23.7816 21.6756 23.5352L20.73 28.2985C20.2151 29.1226 18.5039 29.5338 17.4346 29.7459C15.3699 30.1523 13.046 30.1458 10.9366 29.9418C10.4629 29.8961 10.0338 29.8096 9.57384 29.7296C8.81522 29.5975 8.0978 29.4375 7.42328 29.1242C7.04912 28.9496 6.4793 28.7326 6.35229 28.3687" fill="#4979BD"/>
<path d="M6.35201 28.369C5.96241 27.2545 5.01328 22.5417 4.83135 21.0926C5.24155 20.8185 5.70496 20.6993 6.25075 20.6014C6.32112 21.3602 6.5185 22.1337 6.63178 22.7685C8.06319 22.4454 9.67654 21.357 9.31096 20.1837C9.08784 19.6158 8.28288 19.4706 7.59978 19.5815C5.97099 19.8492 4.21347 20.7548 3.56642 21.9689C3.17853 21.8025 2.89533 21.543 2.83526 21.2166C2.67221 20.3436 4.53099 19.4151 5.41147 19.0642C6.21128 18.7477 7.04198 18.5323 7.94477 18.4996C8.81838 18.4686 9.68855 18.6383 10.2601 19.1491C10.6772 19.5212 10.8179 20.0058 10.8316 20.4921C10.878 22.1745 8.87673 23.3331 6.91669 23.6775C7.0025 24.3889 7.4968 27.2088 7.65985 27.9056" fill="black"/>
<path d="M3.93184 17.3945C4.22876 18.0603 5.81293 17.3178 6.36044 16.7434C6.6505 16.4383 6.76892 16.0515 6.60072 15.6974C6.48745 15.4575 6.18022 15.3205 5.88673 15.2519C5.59324 15.1834 5.26371 15.2666 4.97365 15.2601C4.74023 15.141 4.79686 14.8244 4.78485 14.6334C4.77284 14.4246 4.83291 14.2793 5.08178 14.1994C6.24544 13.8208 7.66313 12.8857 7.13107 11.8397C6.96973 11.5232 6.52521 11.3665 6.11157 11.3224C5.40616 11.2474 4.75567 11.3485 4.10175 11.5493C2.57251 12.0176 1.22347 13.0342 1.13251 14.3626C0.624477 14.2859 0.181665 14.0395 0.0460754 13.6511C-0.0689185 13.3198 0.0306284 12.9722 0.2589 12.672C1.49294 11.0516 4.2854 9.98759 6.69684 10.3564C7.56873 10.4902 8.25526 10.8933 8.56592 11.5166C9.06537 12.8319 8.06303 13.8632 6.71743 14.5665C7.36106 14.7509 7.87767 15.1491 8.05445 15.6566C8.23123 16.1641 8.08363 16.6504 7.77984 17.1073C7.0401 18.0734 5.69622 18.6984 4.23048 18.7277C3.3809 18.7441 2.71668 18.3508 2.56564 17.7111C2.27043 16.4676 3.14233 13.8665 3.64349 12.6051C4.14466 12.3946 4.64926 12.2722 5.19849 12.3228L4.65269 13.7049C4.39353 14.3609 3.6761 16.8299 3.9284 17.3962L3.93184 17.3945Z" fill="#2F80ED"/>
<path d="M21.4456 22.8915C20.4244 23.603 18.4592 23.7025 17.4603 22.9143C17.0793 22.6141 16.8561 22.1572 17.1136 21.7623C17.3281 21.4343 17.8465 21.2548 18.3082 21.2238C18.4867 21.2123 18.0541 21.9548 18.7527 22.2698C19.386 22.5553 20.5274 22.3611 20.6355 21.8014C20.8466 20.713 17.553 20.8125 17.8018 18.8804C17.8774 18.2946 18.3957 17.8214 19.1028 17.557C19.9404 17.2437 21.3461 17.198 22.103 17.7659C22.4617 18.0335 22.702 18.4725 22.46 18.8511C22.2557 19.1709 21.6928 19.3145 21.2671 19.2786C21.2311 18.8886 21.2826 18.3876 20.5686 18.3272C20.0228 18.2815 19.3843 18.4872 19.2848 18.8886C19.0771 19.7257 20.7127 19.7894 21.6704 20.6379C22.4153 21.2988 22.2935 22.3008 21.4473 22.8899L21.4456 22.8915Z" fill="black"/>
<path d="M14.7191 17.9323C12.2321 17.6941 10.8711 19.8334 11.0702 21.5452C11.2024 22.6794 12.2047 23.585 13.7562 23.4594C15.4606 23.3207 16.4114 22.1898 16.7169 20.9888C17.0344 19.7388 16.6843 18.1216 14.7191 17.934V17.9323ZM14.4273 22.1343C14.0841 22.402 13.3649 22.4264 12.9358 22.211C12.0622 21.7721 12.5754 20.2871 12.9736 19.7257C13.2173 19.383 13.5812 19.1546 13.7871 19.0518C13.8936 18.9996 14 18.9588 14.1321 18.9359C14.3192 18.9049 14.5183 18.918 14.714 18.9767C15.6528 19.2639 15.5841 21.2303 14.4273 22.1327V22.1343Z" fill="black"/>
<path d="M24.7166 15.2056C24.4626 15.4797 24.2532 15.8322 23.8189 15.7392C23.0895 15.5842 24.145 13.2572 24.3682 12.7937C23.9957 12.6436 23.5546 12.5261 23.1376 12.58C22.9934 12.6256 22.9848 12.8166 22.9093 12.8867L22.4751 12.6469C22.1026 12.4412 21.5328 12.5228 21.1123 12.6697C20.6523 12.8313 20.3863 13.0793 19.9915 13.3404C19.6895 13.5395 18.8725 13.701 18.567 13.453C18.3061 13.2425 18.0075 12.5832 16.9107 12.7301C16.5125 12.7839 16.1985 12.9504 15.8964 13.1495C15.9256 12.89 16.0303 12.6779 16.1281 12.4412C16.4696 11.6204 16.8404 10.8274 17.2643 10.0147C16.8884 9.85315 16.4782 9.84662 16.0869 9.85315C15.8346 9.85641 15.7711 9.96738 15.699 10.1191C15.1669 11.2386 14.6864 12.3482 14.3362 13.5052C14.0479 13.7027 13.8179 13.8903 13.4352 14.0323C13.3356 13.2001 12.807 12.4984 11.6124 12.4984C11.0031 12.4984 10.5741 12.7415 10.2583 13.1152C8.98303 13.435 8.4338 15.0979 8.67752 15.9987C8.80281 16.4621 9.10489 16.8815 9.67127 17.0887C10.4539 17.3759 11.3584 17.265 12.0226 16.8342C12.7692 16.3479 13.1863 15.6625 13.3356 14.9184C13.5879 14.8384 13.8076 14.7585 14.0582 14.6508C13.9861 15.204 13.9295 15.7359 14.144 16.2532C14.3895 16.844 15.0434 17.1377 15.8432 17.0904C17.5355 16.9908 18.5327 15.5271 18.6253 14.357C18.9017 14.3717 19.1248 14.3538 19.3685 14.326C19.1385 14.8662 19.0476 15.421 19.2072 15.9693C19.3702 16.5258 19.995 16.8815 20.7656 16.8276C21.4573 16.7787 21.9499 16.4034 22.3086 15.9921C22.4253 16.1374 22.4528 16.2842 22.5866 16.4034C23.0277 16.7983 23.7554 16.8619 24.339 16.6106C24.6685 16.4686 24.9569 16.2565 24.9929 15.9513C25.0238 15.6919 24.9208 15.4063 24.7149 15.2056H24.7166ZM10.4882 16.1961C9.76224 16.0182 10.0094 14.8123 10.32 14.3456C10.7165 14.7829 11.2692 15.0032 11.978 15.0571C11.8493 15.5287 11.2383 16.3805 10.4865 16.1961H10.4882ZM12.1273 14.2297C11.7394 14.2297 11.3704 14.0829 11.2812 13.8071C11.2331 13.6619 11.3069 13.4971 11.4408 13.4432C11.621 13.3714 11.8441 13.3926 11.9677 13.5264C12.1514 13.7271 12.2149 13.967 12.1291 14.2281L12.1273 14.2297ZM16.8455 15.4438C16.6327 15.7441 16.0148 16.232 15.5771 16.0607C15.1343 15.8861 15.3128 14.5235 16.3392 13.8104C16.5022 13.6978 16.7271 13.6586 16.8936 13.701C17.6453 13.892 17.1527 15.0098 16.8455 15.4438ZM22.4322 13.8512C22.3704 14.4337 22.1009 14.9869 21.6632 15.4585C21.5139 15.6201 21.2788 15.7751 20.9973 15.7767C20.781 15.7784 20.6489 15.625 20.6043 15.5075C20.3039 14.7258 21.3612 13.1723 22.2605 13.5019C22.4047 13.5542 22.4476 13.7206 22.4339 13.8512H22.4322Z" fill="black"/>
<path d="M18.8419 27.4134C18.7766 27.7609 18.4145 27.9861 18.0695 28.0318C17.6078 28.0938 17.2268 27.9584 17.0037 27.6973C16.7634 27.4182 16.7634 27.0543 17.0432 26.79C17.3418 26.5077 17.8121 26.4261 18.2291 26.5452C18.6651 26.6709 18.9191 27.0136 18.8436 27.4117L18.8419 27.4134Z" fill="#4979BD"/>
<path d="M9.70086 26.514C10.2758 26.4096 10.7993 26.6935 10.9195 27.0803C11.0533 27.5094 10.7289 27.9255 10.1711 28.0316C9.64594 28.1312 9.11044 27.8815 8.96112 27.4768C8.8118 27.0721 9.095 26.625 9.70086 26.5156V26.514Z" fill="#4979BD"/>
<path d="M15.5584 23.499C16.1162 23.3718 16.6689 23.6361 16.8096 24.0326C16.9504 24.4292 16.65 24.8616 16.1025 24.9824C15.5945 25.095 15.0401 24.8796 14.8719 24.4879C14.7037 24.0963 14.9629 23.6345 15.5567 23.499H15.5584Z" fill="#4979BD"/>
<path d="M15.2788 25.5592C15.8452 25.4857 16.3361 25.8154 16.4253 26.189C16.53 26.6247 16.1353 27.0115 15.6255 27.0817C15.0557 27.16 14.5545 26.8858 14.4481 26.4975C14.328 26.0601 14.6558 25.6407 15.2788 25.5592Z" fill="#4979BD"/>
<path d="M13.4541 28.3809C12.7847 28.4853 12.22 28.1427 12.1891 27.6743C12.1565 27.1799 12.7023 26.7964 13.3717 26.8731C13.8523 26.9269 14.1887 27.2402 14.2178 27.5895C14.247 27.9387 13.9621 28.3026 13.4541 28.3809Z" fill="#4979BD"/>
<path d="M18.301 24.586C18.8691 24.4864 19.3978 24.7802 19.5127 25.1571C19.6449 25.5863 19.3034 25.9943 18.7679 26.0905C18.2324 26.1868 17.7003 25.9502 17.5544 25.5422C17.4085 25.1343 17.7037 24.6904 18.301 24.586Z" fill="#4979BD"/>
<path d="M8.68639 24.5685C9.28367 24.5146 9.7385 24.8328 9.81402 25.2245C9.89983 25.6634 9.4965 26.0502 8.94384 26.104C8.39118 26.1579 7.90718 25.887 7.82136 25.4546C7.74069 25.0499 8.07881 24.6239 8.68639 24.5685Z" fill="#4979BD"/>
<path d="M10.5227 24.9819C9.94599 24.8694 9.70571 24.4451 9.83786 24.0371C9.95801 23.6667 10.4781 23.4072 11.0135 23.4872C11.4907 23.559 11.8872 23.9098 11.8168 24.3308C11.7378 24.7992 11.156 25.106 10.5227 24.9819Z" fill="#4979BD"/>
<path d="M12.6321 26.2905C12.0554 26.1779 11.8151 25.7537 11.9472 25.3457C12.0674 24.9753 12.5874 24.7158 13.1229 24.7958C13.6001 24.8676 13.9965 25.2184 13.9262 25.6394C13.8472 26.1078 13.2654 26.4146 12.6321 26.2905Z" fill="#4979BD"/>
<path d="M20.8999 9.3765C20.8707 9.53642 20.6785 9.60659 20.5463 9.60659C20.3678 9.60659 20.2151 9.5299 20.1412 9.38956C20.0571 9.23127 19.9885 9.04361 20.1292 8.88695C20.2322 8.77272 20.5257 8.75477 20.663 8.85268C20.8364 8.9767 20.9376 9.17579 20.8999 9.3765Z" fill="#4979BD"/>
<path d="M16.4802 3.86523L16.2021 4.94715C17.002 5.13807 19.2641 5.76959 20.9392 7.53688C22.2144 8.88152 22.4616 11.282 22.5594 11.9429H24.1367C24.0612 11.2036 23.7179 8.46866 22.1286 6.81397C20.1137 4.71706 17.3538 4.04963 16.4819 3.86687L16.4802 3.86523Z" fill="#4979BD"/>
<path d="M20.2047 8.05006C20.3472 8.23772 20.2511 8.40743 20.0777 8.49066C19.87 8.58857 19.628 8.54124 19.4976 8.36174C18.9587 7.61599 18.1314 7.03342 17.1462 6.63036C16.9128 6.53571 16.8356 6.37579 16.8974 6.2175C16.9695 6.03473 17.2647 5.97272 17.5067 6.06737C18.6223 6.50797 19.5611 7.20313 20.2064 8.05006H20.2047Z" fill="#4979BD"/>
<path d="M15.3544 0.0695591C14.8652 -0.0348788 14.4516 0.00102175 14.2267 0.0320268L13.2296 3.39362L13.2038 3.49969C12.1466 3.51438 9.52229 3.67756 7.03362 5.12501C3.90132 6.94614 3.20106 9.50977 3.05518 10.1233L4.6771 9.73823C4.90709 9.14097 5.71548 7.32636 8.1149 5.98336C10.0338 4.90797 11.9904 4.68604 12.9275 4.63219L10.9983 11.8368C11.1322 11.7927 11.5493 11.6736 12.0625 11.7731C12.6288 11.8825 12.9343 12.1827 13.015 12.2676C14.0774 8.31036 15.1398 4.35151 16.2005 0.394296C16.0323 0.296385 15.7474 0.154415 15.3526 0.071191L15.3544 0.0695591Z" fill="#4979BD"/>
</g>
<defs>
<clipPath id="clip0_510_1356">
<rect width="25" height="30.0781" fill="white"/>
</clipPath>
</defs>
</svg>
